# Blender v2.76 (sub 0) OBJ File: 'crossbow_bolt.blend'
# www.blender.org
mtllib six_barrels_shotgun.mtl
o Torus.003_Torus.010
v 0.504186 0.504955 1.387182
v 0.504274 0.499506 -1.411033
v 0.504192 0.524580 1.194718
v 0.504274 0.519506 -1.411072
v 0.521513 0.514580 1.194738
v 0.521595 0.509506 -1.411052
v 0.521512 0.494580 1.194777
v 0.521595 0.489506 -1.411013
v 0.504192 0.484580 1.194795
v 0.504274 0.479506 -1.410994
v 0.486871 0.494580 1.194775
v 0.486954 0.489506 -1.411014
v 0.486871 0.514580 1.194736
v 0.486954 0.509506 -1.411053
v 0.503788 0.500257 -1.110834
v 0.503781 0.500733 -0.893633
v 0.503788 0.490159 -1.110815
v 0.503781 0.500097 -0.893632
v 0.590669 0.500257 -1.110832
v 0.514705 0.500733 -0.893633
v 0.503788 0.510505 -1.110854
v 0.503781 0.501633 -0.893634
v 0.416907 0.500257 -1.110837
v 0.492857 0.500732 -0.893633
vt 0.408203 0.831999
vt 0.452249 0.875613
vt 0.452249 0.788385
vt 0.745436 0.674457
vt 0.743154 0.749999
vt 0.747718 0.750000
vt 0.908203 0.875613
vt 0.908203 0.788383
vt 0.452072 0.919227
vt 0.750000 0.674457
vt 0.908026 0.919227
vt 0.408203 0.657542
vt 0.452249 0.613927
vt 0.452072 0.570313
vt 0.747718 0.598915
vt 0.908203 0.613927
vt 0.908026 0.570312
vt 0.452249 0.701157
vt 0.743154 0.598915
vt 0.908203 0.701155
vt 0.452072 0.744770
vt 0.740872 0.674457
vt 0.908026 0.744769
vt 0.251987 0.305357
vt 0.265625 0.485715
vt 0.265625 0.302921
vt 0.290218 0.385412
vt 0.291081 0.385489
vt 0.291081 0.362620
vt 0.371969 0.019531
vt 0.253839 0.020400
vt 0.357115 0.473949
vt 0.371968 0.473894
vt 0.238146 0.307830
vt 0.288995 0.385302
vt 0.135708 0.019531
vt 0.135704 0.473875
vt 0.150557 0.473953
vt 0.238349 0.125000
vt 0.289355 0.408203
vt 0.017578 0.020410
vt 0.120851 0.473953
vt 0.490099 0.020401
vt 0.386822 0.473949
vn 0.498000 0.862700 0.088000
vn 0.000000 -0.001900 -1.000000
vn 0.500000 0.866000 -0.001700
vn 0.996000 0.000200 0.089700
vn 0.000000 -0.002000 -1.000000
vn 1.000000 -0.000000 0.000000
vn 0.498000 -0.862400 0.091300
vn 0.500000 -0.866000 0.001700
vn -0.498000 -0.862400 0.091300
vn -0.500000 -0.866000 0.001700
vn -0.996000 0.000200 0.089600
vn -1.000000 0.000000 -0.000000
vn -0.498000 0.862700 0.088000
vn -0.500000 0.866000 -0.001700
vn 0.000000 0.001500 1.000000
vn 0.109000 -0.993100 0.042900
vn 0.000000 0.002100 1.000000
vn 0.113200 0.992800 0.039000
vn -0.113200 0.992800 0.039000
vn -0.000100 0.001500 1.000000
vn -0.109000 -0.993100 0.042900
usemtl Wood
s off
f 1/1/1 5/2/1 3/3/1
f 2/4/2 4/5/2 6/6/2
f 3/3/3 5/2/3 6/7/3 4/8/3
f 1/1/4 7/9/4 5/2/4
f 2/4/5 6/6/5 8/10/5
f 5/2/6 7/9/6 8/11/6 6/7/6
f 1/12/7 9/13/7 7/14/7
f 2/4/2 8/10/2 10/15/2
f 7/14/8 9/13/8 10/16/8 8/17/8
f 1/12/9 11/18/9 9/13/9
f 2/4/2 10/15/2 12/19/2
f 9/13/10 11/18/10 12/20/10 10/16/10
f 1/12/11 13/21/11 11/18/11
f 2/4/2 12/19/2 14/22/2
f 11/18/12 13/21/12 14/23/12 12/20/12
f 1/1/13 3/3/13 13/21/13
f 2/4/2 14/22/2 4/5/2
f 13/21/14 3/3/14 4/8/14 14/23/14
f 15/24/2 19/25/2 17/26/2
f 16/27/15 18/28/15 20/29/15
f 17/30/16 19/31/16 20/32/16 18/33/16
f 15/24/5 21/34/5 19/25/5
f 16/27/17 20/29/17 22/35/17
f 19/31/18 21/36/18 22/37/18 20/38/18
f 15/24/5 23/39/5 21/34/5
f 16/27/17 22/35/17 24/40/17
f 21/36/19 23/41/19 24/42/19 22/37/19
f 15/24/2 17/26/2 23/39/2
f 16/27/20 24/40/20 18/28/20
f 23/43/21 17/30/21 18/33/21 24/44/21
